<svg height='200' width='200'  fill="#ffffff" xmlns="http://www.w3.org/2000/svg" xmlns:xlink="http://www.w3.org/1999/xlink" version="1.2" baseProfile="tiny" x="0px" y="0px" viewBox="0 0 100 100" xml:space="preserve"><path d="M36.25,35c6.203,0,11.25-5.607,11.25-12.5S42.453,10,36.25,10S25,15.607,25,22.5S30.047,35,36.25,35z M36.25,15  c3.446,0,6.25,3.364,6.25,7.5S39.696,30,36.25,30S30,26.636,30,22.5S32.804,15,36.25,15z"></path><path d="M16.25,55c6.203,0,11.25-5.607,11.25-12.5S22.453,30,16.25,30S5,35.607,5,42.5S10.047,55,16.25,55z M16.25,35  c3.446,0,6.25,3.364,6.25,7.5S19.696,50,16.25,50S10,46.636,10,42.5S12.804,35,16.25,35z"></path><path d="M83.75,30c-6.203,0-11.25,5.607-11.25,12.5S77.547,55,83.75,55S95,49.393,95,42.5S89.953,30,83.75,30z M83.75,50  c-3.446,0-6.25-3.364-6.25-7.5s2.804-7.5,6.25-7.5S90,38.364,90,42.5S87.196,50,83.75,50z"></path><path d="M63.75,35C69.953,35,75,29.393,75,22.5S69.953,10,63.75,10S52.5,15.607,52.5,22.5S57.547,35,63.75,35z M63.75,15  c3.446,0,6.25,3.364,6.25,7.5S67.196,30,63.75,30s-6.25-3.364-6.25-7.5S60.304,15,63.75,15z"></path><path d="M34.443,46.946L24.056,59.93C21.43,63.212,20,67.29,20,71.492C20,81.714,28.286,90,38.508,90h22.984  C71.714,90,80,81.714,80,71.492c0-4.203-1.43-8.28-4.056-11.562L65.557,46.946C62.045,42.556,56.727,40,51.105,40h-2.209  C43.273,40,37.955,42.556,34.443,46.946z M48.895,47.5h2.209c3.362,0,6.495,1.506,8.596,4.131l10.388,12.984  c1.556,1.944,2.412,4.387,2.412,6.877c0,6.07-4.938,11.008-11.008,11.008H38.508c-6.07,0-11.008-4.938-11.008-11.008  c0-2.49,0.857-4.932,2.412-6.877L40.3,51.631C42.4,49.006,45.533,47.5,48.895,47.5z"></path></svg>